# xmcd CD database file
#
# Track frame offsets:
#	150
#	18975
#	38970
#	61535
#	90710
#	104805
#	120697
#	143592
#	156137
#	176975
#	192240
#
# Disc length: 2749 seconds
#
# Revision: 2
# Processed by: cddbd v1.5.1PL0 Copyright (c) Steve Scherf et al.
# Submitted via: CDex 1.51
#
DISCID=920abb0b
DTITLE=Dee Daniels - Let's Talk Business
DYEAR=1900
DGENRE=Jazz
TTITLE0=Let's Talk Business
TTITLE1=The Right Time
TTITLE2=I Got This Bridge I Want You To Buy
TTITLE3=Let Me Love You Tonight
TTITLE4=Walking On A Tightrope
TTITLE5=Battle Hymn Of The Republic
TTITLE6=Please Send Me Someone To Love
TTITLE7=Baby, What You Want Me To Do
TTITLE8=The Night Life
TTITLE9=I Set Myself Free
TTITLE10=Inchworm
EXTD=
EXTT0=
EXTT1=
EXTT2=
EXTT3=
EXTT4=
EXTT5=
EXTT6=
EXTT7=
EXTT8=
EXTT9=
EXTT10=
PLAYORDER=
